<mxfile host="app.diagrams.net" modified="2021-09-18T05:35:21.306Z" agent="5.0 (Windows NT 10.0; Win64; x64) AppleWebKit/537.36 (KHTML, like Gecko) Chrome/93.0.4577.82 Safari/537.36" etag="t-oQutZYJ53tLLqA-keP" version="15.2.9" type="github">
  <diagram id="uU9jqrOdyFuOlI-S2SiM" name="Page-1">
    <mxGraphModel dx="877" dy="750" grid="1" gridSize="10" guides="1" tooltips="1" connect="1" arrows="1" fold="1" page="1" pageScale="1" pageWidth="827" pageHeight="1169" math="0" shadow="0">
      <root>
        <mxCell id="0" />
        <mxCell id="1" parent="0" />
        <mxCell id="oPtvyTn1gMhMAY28uupX-33" style="edgeStyle=orthogonalEdgeStyle;rounded=0;orthogonalLoop=1;jettySize=auto;html=1;entryX=0.5;entryY=0;entryDx=0;entryDy=0;fontSize=20;" edge="1" parent="1" source="oPtvyTn1gMhMAY28uupX-1" target="oPtvyTn1gMhMAY28uupX-3">
          <mxGeometry relative="1" as="geometry" />
        </mxCell>
        <mxCell id="oPtvyTn1gMhMAY28uupX-1" value="&lt;font style=&quot;font-size: 16px&quot;&gt;Inicio&lt;/font&gt;" style="ellipse;shape=doubleEllipse;whiteSpace=wrap;html=1;aspect=fixed;" vertex="1" parent="1">
          <mxGeometry x="425" y="70" width="70" height="70" as="geometry" />
        </mxCell>
        <mxCell id="oPtvyTn1gMhMAY28uupX-14" style="edgeStyle=orthogonalEdgeStyle;rounded=0;orthogonalLoop=1;jettySize=auto;html=1;entryX=0.5;entryY=0;entryDx=0;entryDy=0;" edge="1" parent="1" source="oPtvyTn1gMhMAY28uupX-3" target="oPtvyTn1gMhMAY28uupX-4">
          <mxGeometry relative="1" as="geometry" />
        </mxCell>
        <mxCell id="oPtvyTn1gMhMAY28uupX-3" value="&lt;font style=&quot;font-size: 19px&quot;&gt;Inicio de sesion&lt;/font&gt;" style="rounded=0;whiteSpace=wrap;html=1;" vertex="1" parent="1">
          <mxGeometry x="320" y="210" width="280" height="60" as="geometry" />
        </mxCell>
        <mxCell id="oPtvyTn1gMhMAY28uupX-5" style="edgeStyle=orthogonalEdgeStyle;rounded=0;orthogonalLoop=1;jettySize=auto;html=1;entryX=1;entryY=0.5;entryDx=0;entryDy=0;" edge="1" parent="1" source="oPtvyTn1gMhMAY28uupX-4" target="oPtvyTn1gMhMAY28uupX-3">
          <mxGeometry relative="1" as="geometry">
            <Array as="points">
              <mxPoint x="650" y="350" />
              <mxPoint x="650" y="260" />
            </Array>
          </mxGeometry>
        </mxCell>
        <mxCell id="oPtvyTn1gMhMAY28uupX-6" value="&lt;font style=&quot;font-size: 20px;&quot;&gt;No&lt;/font&gt;" style="edgeLabel;html=1;align=center;verticalAlign=middle;resizable=0;points=[];fontSize=20;" vertex="1" connectable="0" parent="oPtvyTn1gMhMAY28uupX-5">
          <mxGeometry x="-0.5124" y="-1" relative="1" as="geometry">
            <mxPoint as="offset" />
          </mxGeometry>
        </mxCell>
        <mxCell id="oPtvyTn1gMhMAY28uupX-8" value="&lt;span style=&quot;font-size: 20px&quot;&gt;Si&lt;br&gt;&lt;/span&gt;" style="edgeStyle=orthogonalEdgeStyle;rounded=0;orthogonalLoop=1;jettySize=auto;html=1;entryX=0.527;entryY=-0.033;entryDx=0;entryDy=0;entryPerimeter=0;" edge="1" parent="1" source="oPtvyTn1gMhMAY28uupX-4" target="oPtvyTn1gMhMAY28uupX-15">
          <mxGeometry relative="1" as="geometry">
            <mxPoint x="250" y="390" as="targetPoint" />
          </mxGeometry>
        </mxCell>
        <mxCell id="oPtvyTn1gMhMAY28uupX-4" value="&lt;span style=&quot;font-size: 14px&quot;&gt;Es Correcto&lt;/span&gt;" style="shape=rhombus;double=1;perimeter=rhombusPerimeter;whiteSpace=wrap;html=1;align=center;" vertex="1" parent="1">
          <mxGeometry x="400" y="320" width="120" height="60" as="geometry" />
        </mxCell>
        <mxCell id="oPtvyTn1gMhMAY28uupX-42" style="edgeStyle=orthogonalEdgeStyle;rounded=0;orthogonalLoop=1;jettySize=auto;html=1;entryX=0.5;entryY=0;entryDx=0;entryDy=0;fontSize=20;" edge="1" parent="1" source="oPtvyTn1gMhMAY28uupX-9" target="oPtvyTn1gMhMAY28uupX-41">
          <mxGeometry relative="1" as="geometry">
            <Array as="points">
              <mxPoint x="170" y="860" />
              <mxPoint x="440" y="860" />
            </Array>
          </mxGeometry>
        </mxCell>
        <mxCell id="oPtvyTn1gMhMAY28uupX-9" value="Menu Cliente" style="swimlane;fontStyle=0;childLayout=stackLayout;horizontal=1;startSize=26;horizontalStack=0;resizeParent=1;resizeParentMax=0;resizeLast=0;collapsible=1;marginBottom=0;align=center;fontSize=14;" vertex="1" parent="1">
          <mxGeometry x="90" y="604" width="160" height="146" as="geometry" />
        </mxCell>
        <mxCell id="oPtvyTn1gMhMAY28uupX-10" value="Consultar Listado Clases" style="text;strokeColor=none;fillColor=none;spacingLeft=4;spacingRight=4;overflow=hidden;rotatable=0;points=[[0,0.5],[1,0.5]];portConstraint=eastwest;fontSize=12;" vertex="1" parent="oPtvyTn1gMhMAY28uupX-9">
          <mxGeometry y="26" width="160" height="30" as="geometry" />
        </mxCell>
        <mxCell id="oPtvyTn1gMhMAY28uupX-11" value="Programar clase" style="text;strokeColor=none;fillColor=none;spacingLeft=4;spacingRight=4;overflow=hidden;rotatable=0;points=[[0,0.5],[1,0.5]];portConstraint=eastwest;fontSize=12;" vertex="1" parent="oPtvyTn1gMhMAY28uupX-9">
          <mxGeometry y="56" width="160" height="30" as="geometry" />
        </mxCell>
        <mxCell id="oPtvyTn1gMhMAY28uupX-12" value="Actualizar clase" style="text;strokeColor=none;fillColor=none;spacingLeft=4;spacingRight=4;overflow=hidden;rotatable=0;points=[[0,0.5],[1,0.5]];portConstraint=eastwest;fontSize=12;" vertex="1" parent="oPtvyTn1gMhMAY28uupX-9">
          <mxGeometry y="86" width="160" height="30" as="geometry" />
        </mxCell>
        <mxCell id="oPtvyTn1gMhMAY28uupX-16" value="Eliminar clase" style="text;strokeColor=none;fillColor=none;spacingLeft=4;spacingRight=4;overflow=hidden;rotatable=0;points=[[0,0.5],[1,0.5]];portConstraint=eastwest;fontSize=12;" vertex="1" parent="oPtvyTn1gMhMAY28uupX-9">
          <mxGeometry y="116" width="160" height="30" as="geometry" />
        </mxCell>
        <mxCell id="oPtvyTn1gMhMAY28uupX-34" style="edgeStyle=orthogonalEdgeStyle;rounded=0;orthogonalLoop=1;jettySize=auto;html=1;entryX=0.5;entryY=0;entryDx=0;entryDy=0;fontSize=20;" edge="1" parent="1" source="oPtvyTn1gMhMAY28uupX-15" target="oPtvyTn1gMhMAY28uupX-17">
          <mxGeometry relative="1" as="geometry" />
        </mxCell>
        <mxCell id="oPtvyTn1gMhMAY28uupX-35" style="edgeStyle=orthogonalEdgeStyle;rounded=0;orthogonalLoop=1;jettySize=auto;html=1;entryX=0.5;entryY=0;entryDx=0;entryDy=0;fontSize=20;" edge="1" parent="1" source="oPtvyTn1gMhMAY28uupX-15" target="oPtvyTn1gMhMAY28uupX-9">
          <mxGeometry relative="1" as="geometry" />
        </mxCell>
        <mxCell id="oPtvyTn1gMhMAY28uupX-36" style="edgeStyle=orthogonalEdgeStyle;rounded=0;orthogonalLoop=1;jettySize=auto;html=1;fontSize=20;" edge="1" parent="1" source="oPtvyTn1gMhMAY28uupX-15" target="oPtvyTn1gMhMAY28uupX-22">
          <mxGeometry relative="1" as="geometry" />
        </mxCell>
        <mxCell id="oPtvyTn1gMhMAY28uupX-37" style="edgeStyle=orthogonalEdgeStyle;rounded=0;orthogonalLoop=1;jettySize=auto;html=1;entryX=0.5;entryY=0;entryDx=0;entryDy=0;fontSize=20;" edge="1" parent="1" source="oPtvyTn1gMhMAY28uupX-15" target="oPtvyTn1gMhMAY28uupX-27">
          <mxGeometry relative="1" as="geometry" />
        </mxCell>
        <mxCell id="oPtvyTn1gMhMAY28uupX-15" value="&lt;font style=&quot;font-size: 19px&quot;&gt;Pagina de Inicio&lt;/font&gt;" style="rounded=0;whiteSpace=wrap;html=1;" vertex="1" parent="1">
          <mxGeometry x="110" y="480" width="660" height="60" as="geometry" />
        </mxCell>
        <mxCell id="oPtvyTn1gMhMAY28uupX-43" style="edgeStyle=orthogonalEdgeStyle;rounded=0;orthogonalLoop=1;jettySize=auto;html=1;fontSize=20;" edge="1" parent="1" source="oPtvyTn1gMhMAY28uupX-17" target="oPtvyTn1gMhMAY28uupX-41">
          <mxGeometry relative="1" as="geometry">
            <Array as="points">
              <mxPoint x="340" y="860" />
              <mxPoint x="440" y="860" />
            </Array>
          </mxGeometry>
        </mxCell>
        <mxCell id="oPtvyTn1gMhMAY28uupX-17" value="Menu Coordinador" style="swimlane;fontStyle=0;childLayout=stackLayout;horizontal=1;startSize=26;horizontalStack=0;resizeParent=1;resizeParentMax=0;resizeLast=0;collapsible=1;marginBottom=0;align=center;fontSize=14;" vertex="1" parent="1">
          <mxGeometry x="260" y="604" width="160" height="146" as="geometry" />
        </mxCell>
        <mxCell id="oPtvyTn1gMhMAY28uupX-18" value="Crear Cliente" style="text;strokeColor=none;fillColor=none;spacingLeft=4;spacingRight=4;overflow=hidden;rotatable=0;points=[[0,0.5],[1,0.5]];portConstraint=eastwest;fontSize=12;" vertex="1" parent="oPtvyTn1gMhMAY28uupX-17">
          <mxGeometry y="26" width="160" height="30" as="geometry" />
        </mxCell>
        <mxCell id="oPtvyTn1gMhMAY28uupX-19" value="Crear Clases" style="text;strokeColor=none;fillColor=none;spacingLeft=4;spacingRight=4;overflow=hidden;rotatable=0;points=[[0,0.5],[1,0.5]];portConstraint=eastwest;fontSize=12;" vertex="1" parent="oPtvyTn1gMhMAY28uupX-17">
          <mxGeometry y="56" width="160" height="30" as="geometry" />
        </mxCell>
        <mxCell id="oPtvyTn1gMhMAY28uupX-20" value="Crear Instructores" style="text;strokeColor=none;fillColor=none;spacingLeft=4;spacingRight=4;overflow=hidden;rotatable=0;points=[[0,0.5],[1,0.5]];portConstraint=eastwest;fontSize=12;" vertex="1" parent="oPtvyTn1gMhMAY28uupX-17">
          <mxGeometry y="86" width="160" height="30" as="geometry" />
        </mxCell>
        <mxCell id="oPtvyTn1gMhMAY28uupX-21" value="Crear Horarios" style="text;strokeColor=none;fillColor=none;spacingLeft=4;spacingRight=4;overflow=hidden;rotatable=0;points=[[0,0.5],[1,0.5]];portConstraint=eastwest;fontSize=12;" vertex="1" parent="oPtvyTn1gMhMAY28uupX-17">
          <mxGeometry y="116" width="160" height="30" as="geometry" />
        </mxCell>
        <mxCell id="oPtvyTn1gMhMAY28uupX-44" style="edgeStyle=orthogonalEdgeStyle;rounded=0;orthogonalLoop=1;jettySize=auto;html=1;fontSize=20;" edge="1" parent="1" source="oPtvyTn1gMhMAY28uupX-22" target="oPtvyTn1gMhMAY28uupX-41">
          <mxGeometry relative="1" as="geometry">
            <Array as="points">
              <mxPoint x="520" y="860" />
              <mxPoint x="440" y="860" />
            </Array>
          </mxGeometry>
        </mxCell>
        <mxCell id="oPtvyTn1gMhMAY28uupX-22" value="Menu Instructor" style="swimlane;fontStyle=0;childLayout=stackLayout;horizontal=1;startSize=26;horizontalStack=0;resizeParent=1;resizeParentMax=0;resizeLast=0;collapsible=1;marginBottom=0;align=center;fontSize=14;" vertex="1" parent="1">
          <mxGeometry x="440" y="604" width="160" height="56" as="geometry" />
        </mxCell>
        <mxCell id="oPtvyTn1gMhMAY28uupX-23" value="Consultar clases asignadas" style="text;strokeColor=none;fillColor=none;spacingLeft=4;spacingRight=4;overflow=hidden;rotatable=0;points=[[0,0.5],[1,0.5]];portConstraint=eastwest;fontSize=12;" vertex="1" parent="oPtvyTn1gMhMAY28uupX-22">
          <mxGeometry y="26" width="160" height="30" as="geometry" />
        </mxCell>
        <mxCell id="oPtvyTn1gMhMAY28uupX-45" style="edgeStyle=orthogonalEdgeStyle;rounded=0;orthogonalLoop=1;jettySize=auto;html=1;fontSize=20;" edge="1" parent="1" source="oPtvyTn1gMhMAY28uupX-27">
          <mxGeometry relative="1" as="geometry">
            <mxPoint x="440" y="890" as="targetPoint" />
            <Array as="points">
              <mxPoint x="690" y="860" />
              <mxPoint x="440" y="860" />
            </Array>
          </mxGeometry>
        </mxCell>
        <mxCell id="oPtvyTn1gMhMAY28uupX-27" value="Menu Administrador" style="swimlane;fontStyle=0;childLayout=stackLayout;horizontal=1;startSize=26;horizontalStack=0;resizeParent=1;resizeParentMax=0;resizeLast=0;collapsible=1;marginBottom=0;align=center;fontSize=14;" vertex="1" parent="1">
          <mxGeometry x="610" y="604" width="160" height="86" as="geometry" />
        </mxCell>
        <mxCell id="oPtvyTn1gMhMAY28uupX-28" value="Crear Usuarios" style="text;strokeColor=none;fillColor=none;spacingLeft=4;spacingRight=4;overflow=hidden;rotatable=0;points=[[0,0.5],[1,0.5]];portConstraint=eastwest;fontSize=12;" vertex="1" parent="oPtvyTn1gMhMAY28uupX-27">
          <mxGeometry y="26" width="160" height="30" as="geometry" />
        </mxCell>
        <mxCell id="oPtvyTn1gMhMAY28uupX-29" value="Eliminar usuarios" style="text;strokeColor=none;fillColor=none;spacingLeft=4;spacingRight=4;overflow=hidden;rotatable=0;points=[[0,0.5],[1,0.5]];portConstraint=eastwest;fontSize=12;" vertex="1" parent="oPtvyTn1gMhMAY28uupX-27">
          <mxGeometry y="56" width="160" height="30" as="geometry" />
        </mxCell>
        <mxCell id="oPtvyTn1gMhMAY28uupX-40" value="&lt;font style=&quot;font-size: 16px&quot;&gt;Inicio&lt;/font&gt;" style="ellipse;shape=doubleEllipse;whiteSpace=wrap;html=1;aspect=fixed;" vertex="1" parent="1">
          <mxGeometry x="405" y="1020" width="70" height="70" as="geometry" />
        </mxCell>
        <mxCell id="oPtvyTn1gMhMAY28uupX-46" style="edgeStyle=orthogonalEdgeStyle;rounded=0;orthogonalLoop=1;jettySize=auto;html=1;fontSize=20;" edge="1" parent="1" source="oPtvyTn1gMhMAY28uupX-41" target="oPtvyTn1gMhMAY28uupX-40">
          <mxGeometry relative="1" as="geometry" />
        </mxCell>
        <mxCell id="oPtvyTn1gMhMAY28uupX-41" value="&lt;font style=&quot;font-size: 19px&quot;&gt;Cerrar Sesion&lt;/font&gt;" style="rounded=0;whiteSpace=wrap;html=1;" vertex="1" parent="1">
          <mxGeometry x="370" y="890" width="140" height="60" as="geometry" />
        </mxCell>
      </root>
    </mxGraphModel>
  </diagram>
</mxfile>
